<?xml version="1.0" standalone="no"?>
<!DOCTYPE svg PUBLIC "-//W3C//DTD SVG 20010904//EN"
 "http://www.w3.org/TR/2001/REC-SVG-20010904/DTD/svg10.dtd">
<svg version="1.0" xmlns="http://www.w3.org/2000/svg"
 width="260.000000pt" height="260.000000pt" viewBox="0 0 260.000000 260.000000"
 preserveAspectRatio="xMidYMid meet">
<metadata>
Created by potrace 1.11, written by Peter Selinger 2001-2013
</metadata>
<g transform="translate(0.000000,260.000000) scale(0.100000,-0.100000)"
fill="#000000" stroke="none">
<path d="M1274 2578 c-16 -13 -35 -28 -42 -35 -8 -8 -30 -26 -50 -41 -20 -15
-46 -35 -57 -44 -11 -9 -137 -110 -280 -223 -143 -113 -271 -215 -285 -226
-14 -11 -109 -86 -212 -167 l-187 -147 0 -47 -1 -47 122 -3 121 -3 2 -565 c1
-311 2 -568 3 -571 1 -3 16 -6 32 -6 l30 0 0 574 0 573 810 0 810 0 0 -570 c0
-314 3 -571 8 -571 4 -1 19 -2 35 -3 l27 -2 0 573 0 573 98 -1 c53 0 118 0
145 0 l47 1 0 48 0 49 -175 138 c-157 124 -175 141 -176 169 0 17 -2 108 -2
201 l-2 170 -115 1 c-63 1 -119 0 -125 -3 -6 -2 -10 -42 -9 -93 1 -50 -2 -92
-5 -94 -3 -2 -51 32 -106 76 -83 65 -382 300 -421 330 -7 5 -23 -1 -40 -14z
m156 -638 l0 -130 -129 0 -130 0 0 130 -1 130 130 0 130 0 0 -130z"/>
<path d="M769 1363 c-19 -8 -44 -23 -56 -35 l-22 -21 0 -423 c0 -233 3 -425 7
-425 4 -1 62 -2 130 -3 l122 -2 -2 430 -3 430 -40 28 c-48 33 -91 40 -136 21z"/>
<path d="M1295 1374 c-5 -1 -22 -5 -37 -8 -14 -3 -40 -18 -57 -32 l-31 -26 0
-424 c0 -233 3 -425 8 -425 4 -1 62 -2 130 -3 l122 -1 0 427 0 427 -34 26
c-34 26 -82 44 -101 39z"/>
<path d="M1747 1370 c-21 -4 -51 -20 -67 -35 l-30 -29 2 -425 3 -426 128 0
127 -1 0 428 0 427 -34 26 c-43 33 -81 43 -129 35z"/>
<path d="M399 340 c-1 -5 -2 -20 -2 -32 l-1 -23 882 -1 c717 0 882 2 883 13 5
52 82 48 -878 51 -586 1 -883 -1 -884 -8z"/>
<path d="M288 205 c-2 -3 -3 -18 0 -35 l4 -30 988 0 c933 0 989 1 992 18 2 9
2 25 0 35 -4 16 -60 17 -991 17 -543 0 -990 -2 -993 -5z"/>
<path d="M180 35 l0 -35 1100 0 1100 0 0 35 0 35 -1100 0 -1100 0 0 -35z"/>
</g>
</svg>
