<svg version="1.2" xmlns="http://www.w3.org/2000/svg" viewBox="0 0 271.3 270.7" overflow="scroll"><path d="M88.5 120.1V72.5c0-26 21.2-47.2 47.2-47.2s47.2 21.2 47.2 47.2v16h22v-16c0-38.2-31.1-69.2-69.2-69.2s-69.2 31-69.2 69.2v47.7H37v104.5c0 7.6 2 14.8 5.5 20.9v1.1h.7c7.5 12.3 21 20.6 36.5 20.6h112.1c15.4 0 29-8.3 36.5-20.6h.7v-1.1c3.5-6.2 5.5-13.3 5.5-20.9V120.2h-146v-.1zm103.1 136.1h-112c-8.8 0-16.9-3.6-22.6-9.6h157.2c-5.8 5.9-13.7 9.6-22.6 9.6zm26.2-14H53.4c-2.3-3.4-4-7.3-4.7-11.5h174c-.9 4.2-2.6 8.1-4.9 11.5zm5.4-17.6v1.8H48.1v-95.2h175.2v93.4h-.1z"/><path d="M127.8 182.4l-9.1 26.2h32.2l-8.4-25.7c6.1-2.6 10.4-8.7 10.4-15.6 0-9.5-7.6-17.1-17.1-17.1-9.5 0-17.1 7.6-17.1 17.1-.2 6.5 3.6 12.2 9.1 15.1z"/></svg>