<svg version="1.2" xmlns="http://www.w3.org/2000/svg" viewBox="0 0 55 53.7" overflow="scroll">
	<path d="M41.5 15.8c1.2 0 2.2-1 2.2-2.2 0-.6-.3-1.2-.7-1.6V1.7c0-.8-.7-1.4-1.4-1.4-.8 0-1.5.7-1.5 1.4V12c-.4.4-.7 1-.7 1.6-.1 1.2.9 2.2 2.1 2.2zM18.2 8.4h18.1c.8 0 1.5-.6 1.5-1.5 0-.8-.6-1.5-1.5-1.5H18.2c-.8 0-1.5.6-1.5 1.5 0 .8.7 1.5 1.5 1.5zm-5 7.4c1.2 0 2.2-1 2.2-2.2 0-.6-.3-1.2-.7-1.6V1.7c0-.8-.7-1.4-1.4-1.4-.8 0-1.5.7-1.5 1.4V12c-.4.4-.7 1-.7 1.6 0 1.2.9 2.2 2.1 2.2zM53.6 5.7h-7.2c-.6 0-1.2.5-1.2 1.2s.5 1.2 1.2 1.2h6v11.4H2.6V8.1h5.7c.6 0 1.2-.5 1.2-1.2S9 5.7 8.3 5.7H1.4C.8 5.7.2 6.2.2 6.9v45.3c0 .6.5 1.2 1.2 1.2h52.2c.6 0 1.2-.5 1.2-1.2V6.9c0-.6-.5-1.2-1.2-1.2zM13.7 51H2.6v-9.5h11.2l-.1 9.5zm0-10.7H2.6v-8.5h11.2l-.1 8.5zm0-9.7H2.6v-8.3h11.2l-.1 8.3zm13 20.4H14.9v-9.5h11.8V51zm0-10.7H14.9v-8.5h11.8v8.5zm0-9.7H14.9v-8.3h11.8v8.3zM39.6 51H27.8v-9.5h11.8V51zm0-10.7H27.8v-8.5h11.8v8.5zm0-9.7H27.8v-8.3h11.8v8.3zM52.4 51H40.8l11.6-9.4V51zm0-10.7H40.8v-8.5h11.7l-.1 8.5zm0-9.7H40.8v-8.3h11.7l-.1 8.3z"/>
</svg>